<?xml version="1.0" encoding="UTF-8" standalone="no"?>
<!-- Created with Inkscape (http://www.inkscape.org/) -->

<svg
   width="200"
   height="280"
   viewBox="0 0 52.916665 74.083333"
   version="1.1"
   id="svg5"
   xmlns="http://www.w3.org/2000/svg"
   xmlns:svg="http://www.w3.org/2000/svg">
  <defs
     id="defs2" />
  <g
     id="layer1">
    <text
       xml:space="preserve"
       style="font-style:normal;font-variant:normal;font-weight:normal;font-stretch:normal;font-size:12.3472px;font-family:'Ubuntu Mono';-inkscape-font-specification:'Ubuntu Mono';fill:#000000;stroke-width:0.264583"
       x="1.9931947"
       y="10.673275"
       id="text481"><tspan
         id="tspan479"
         style="font-style:normal;font-variant:normal;font-weight:normal;font-stretch:normal;font-size:12.3472px;font-family:'Ubuntu Mono';-inkscape-font-specification:'Ubuntu Mono';stroke-width:0.264583"
         x="1.9931947"
         y="10.673275">A</tspan></text>
    <text
       xml:space="preserve"
       style="font-style:normal;font-variant:normal;font-weight:normal;font-stretch:normal;font-size:12.3472px;font-family:'Ubuntu Mono';-inkscape-font-specification:'Ubuntu Mono';fill:#000000;stroke-width:0.264583"
       x="-50.92347"
       y="-63.410057"
       id="text481-1"
       transform="scale(-1)"><tspan
         id="tspan479-7"
         style="font-style:normal;font-variant:normal;font-weight:normal;font-stretch:normal;font-size:12.3472px;font-family:'Ubuntu Mono';-inkscape-font-specification:'Ubuntu Mono';stroke-width:0.264583"
         x="-50.92347"
         y="-63.410057">A</tspan></text>
    <path
       id="rect725"
       style="stroke-width:0.218515"
       d="m 34.523658,37.041667 c 0,0 -3.580131,3.34959 -4.906725,5.383045 -1.420504,2.177406 -3.1586,7.131171 -3.1586,7.131171 0,0 -1.738096,-4.953765 -3.1586,-7.131171 -1.326593,-2.033455 -4.906724,-5.383045 -4.906724,-5.383045 0,0 3.580131,-3.349591 4.906724,-5.383046 1.420504,-2.177407 3.1586,-7.13117 3.1586,-7.13117 0,0 1.738096,4.953764 3.1586,7.13117 1.326594,2.033456 4.906725,5.383046 4.906725,5.383046 z" />
  </g>
</svg>
